<svg width="440" height="440" viewBox="0 0 440 440" xmlns="http://www.w3.org/2000/svg"><g id="01-outer-octagon"><polygon points="277.4,81.42 358.58,162.6 358.58,277.4 277.4,358.58 162.6,358.58 81.42,277.4 81.42,162.6 162.6,81.42" fill="none" stroke="#5E9B7A" stroke-width="1.4" stroke-linejoin="round"/></g><g id="02-breathing-circle"><circle cx="220" cy="220" r="129.0" fill="none" stroke="#D8C290" stroke-width="1.0" opacity="0.45"/></g><g id="03-mid-octagon"><polygon points="220.0,112.0 296.37,143.63 328.0,220.0 296.37,296.37 220.0,328.0 143.63,296.37 112.0,220.0 143.63,143.63" fill="none" stroke="#C6A867" stroke-width="1.4" stroke-linejoin="round"/></g><g id="04-circuit-spokes"><line x1="239.52" y1="172.88" x2="261.33" y2="120.22" stroke="#D8C290" stroke-width="1.0" opacity="0.45"/><line x1="267.12" y1="200.48" x2="319.78" y2="178.67" stroke="#D8C290" stroke-width="1.0" opacity="0.45"/><line x1="267.12" y1="239.52" x2="319.78" y2="261.33" stroke="#D8C290" stroke-width="1.0" opacity="0.45"/><line x1="239.52" y1="267.12" x2="261.33" y2="319.78" stroke="#D8C290" stroke-width="1.0" opacity="0.45"/><line x1="200.48" y1="267.12" x2="178.67" y2="319.78" stroke="#D8C290" stroke-width="1.0" opacity="0.45"/><line x1="172.88" y1="239.52" x2="120.22" y2="261.33" stroke="#D8C290" stroke-width="1.0" opacity="0.45"/><line x1="172.88" y1="200.48" x2="120.22" y2="178.67" stroke="#D8C290" stroke-width="1.0" opacity="0.45"/><line x1="200.48" y1="172.88" x2="178.67" y2="120.22" stroke="#D8C290" stroke-width="1.0" opacity="0.45"/></g><g id="05-inner-ring"><circle cx="220" cy="220" r="51.0" fill="none" stroke="#C6A867" stroke-width="1.4"/></g><g id="06-core"><circle cx="220" cy="220" r="24.0" fill="none" stroke="#5E9B7A" stroke-width="1.4"/></g><g id="07-node-dots"><circle cx="220.0" cy="70.0" r="5.5" fill="#C6A867"/><circle cx="326.07" cy="113.93" r="5.5" fill="#C6A867"/><circle cx="370.0" cy="220.0" r="5.5" fill="#C6A867"/><circle cx="326.07" cy="326.07" r="5.5" fill="#C6A867"/><circle cx="220.0" cy="370.0" r="5.5" fill="#C6A867"/><circle cx="113.93" cy="326.07" r="5.5" fill="#C6A867"/><circle cx="70.0" cy="220.0" r="5.5" fill="#C6A867"/><circle cx="113.93" cy="113.93" r="5.5" fill="#C6A867"/></g></svg>