<svg width="640" height="160" viewBox="0 0 640 160" xmlns="http://www.w3.org/2000/svg"><g id="seal"><polygon points="102.96,24.57 135.43,57.04 135.43,102.96 102.96,135.43 57.04,135.43 24.57,102.96 24.57,57.04 57.04,24.57" fill="none" stroke="#5E9B7A" stroke-width="0.56" stroke-linejoin="round"/><circle cx="80" cy="80" r="51.6" fill="none" stroke="#D8C290" stroke-width="0.4" opacity="0.45"/><polygon points="80.0,36.8 110.55,49.45 123.2,80.0 110.55,110.55 80.0,123.2 49.45,110.55 36.8,80.0 49.45,49.45" fill="none" stroke="#C6A867" stroke-width="0.56" stroke-linejoin="round"/><line x1="87.81" y1="61.15" x2="96.53" y2="40.09" stroke="#D8C290" stroke-width="0.4" opacity="0.45"/><line x1="98.85" y1="72.19" x2="119.91" y2="63.47" stroke="#D8C290" stroke-width="0.4" opacity="0.45"/><line x1="98.85" y1="87.81" x2="119.91" y2="96.53" stroke="#D8C290" stroke-width="0.4" opacity="0.45"/><line x1="87.81" y1="98.85" x2="96.53" y2="119.91" stroke="#D8C290" stroke-width="0.4" opacity="0.45"/><line x1="72.19" y1="98.85" x2="63.47" y2="119.91" stroke="#D8C290" stroke-width="0.4" opacity="0.45"/><line x1="61.15" y1="87.81" x2="40.09" y2="96.53" stroke="#D8C290" stroke-width="0.4" opacity="0.45"/><line x1="61.15" y1="72.19" x2="40.09" y2="63.47" stroke="#D8C290" stroke-width="0.4" opacity="0.45"/><line x1="72.19" y1="61.15" x2="63.47" y2="40.09" stroke="#D8C290" stroke-width="0.4" opacity="0.45"/><circle cx="80" cy="80" r="20.4" fill="none" stroke="#C6A867" stroke-width="0.56"/><circle cx="80" cy="80" r="9.6" fill="none" stroke="#5E9B7A" stroke-width="0.56"/><circle cx="80.0" cy="20.0" r="2.2" fill="#C6A867"/><circle cx="122.43" cy="37.57" r="2.2" fill="#C6A867"/><circle cx="140.0" cy="80.0" r="2.2" fill="#C6A867"/><circle cx="122.43" cy="122.43" r="2.2" fill="#C6A867"/><circle cx="80.0" cy="140.0" r="2.2" fill="#C6A867"/><circle cx="37.57" cy="122.43" r="2.2" fill="#C6A867"/><circle cx="20.0" cy="80.0" r="2.2" fill="#C6A867"/><circle cx="37.57" cy="37.57" r="2.2" fill="#C6A867"/></g><text id="wordmark" x="185" y="92" font-family="Fraunces, Georgia, serif" font-weight="380" font-size="54" letter-spacing="4" fill="#ECEAE0">Emanet</text><text id="wordmark-ar" x="187" y="126" font-family="Amiri, serif" font-size="23" fill="#C6A867" opacity="0.78">أمانة</text></svg>